<mxfile host="app.diagrams.net" agent="Mozilla/5.0 (X11; Ubuntu; Linux x86_64; rv:138.0) Gecko/20100101 Firefox/138.0" version="27.0.6">
  <diagram name="Page-1" id="VI7Wn0DbQU-4-b_fi7zA">
    <mxGraphModel dx="2169" dy="2236" grid="1" gridSize="10" guides="1" tooltips="1" connect="1" arrows="1" fold="1" page="1" pageScale="1" pageWidth="850" pageHeight="1100" math="0" shadow="0">
      <root>
        <mxCell id="0" />
        <mxCell id="1" parent="0" />
        <mxCell id="IbdB7QtW3HH9ZvtTs0lf-9" value="" style="rounded=1;whiteSpace=wrap;html=1;" vertex="1" parent="1">
          <mxGeometry x="225" y="-377.5" width="1440" height="1385" as="geometry" />
        </mxCell>
        <mxCell id="IbdB7QtW3HH9ZvtTs0lf-155" style="edgeStyle=orthogonalEdgeStyle;rounded=0;orthogonalLoop=1;jettySize=auto;html=1;entryX=1;entryY=0.5;entryDx=0;entryDy=0;" edge="1" parent="1" source="IbdB7QtW3HH9ZvtTs0lf-10" target="IbdB7QtW3HH9ZvtTs0lf-11">
          <mxGeometry relative="1" as="geometry" />
        </mxCell>
        <mxCell id="IbdB7QtW3HH9ZvtTs0lf-10" value="" style="ellipse;whiteSpace=wrap;html=1;fillColor=#252525;" vertex="1" parent="1">
          <mxGeometry x="920" y="-440" width="50" height="40" as="geometry" />
        </mxCell>
        <mxCell id="IbdB7QtW3HH9ZvtTs0lf-16" style="edgeStyle=orthogonalEdgeStyle;rounded=0;orthogonalLoop=1;jettySize=auto;html=1;entryX=1;entryY=0.5;entryDx=0;entryDy=0;" edge="1" parent="1" source="IbdB7QtW3HH9ZvtTs0lf-11" target="IbdB7QtW3HH9ZvtTs0lf-14">
          <mxGeometry relative="1" as="geometry" />
        </mxCell>
        <mxCell id="IbdB7QtW3HH9ZvtTs0lf-11" value="homepage" style="rounded=1;whiteSpace=wrap;html=1;" vertex="1" parent="1">
          <mxGeometry x="730" y="240" width="90" height="50" as="geometry" />
        </mxCell>
        <mxCell id="IbdB7QtW3HH9ZvtTs0lf-13" value="register" style="rounded=1;whiteSpace=wrap;html=1;" vertex="1" parent="1">
          <mxGeometry x="240" y="250" width="100" height="50" as="geometry" />
        </mxCell>
        <mxCell id="IbdB7QtW3HH9ZvtTs0lf-14" value="login" style="rounded=1;whiteSpace=wrap;html=1;" vertex="1" parent="1">
          <mxGeometry x="570" y="240" width="90" height="50" as="geometry" />
        </mxCell>
        <mxCell id="IbdB7QtW3HH9ZvtTs0lf-19" value="" style="edgeStyle=orthogonalEdgeStyle;rounded=0;orthogonalLoop=1;jettySize=auto;html=1;" edge="1" parent="1" source="IbdB7QtW3HH9ZvtTs0lf-18" target="IbdB7QtW3HH9ZvtTs0lf-13">
          <mxGeometry relative="1" as="geometry" />
        </mxCell>
        <mxCell id="IbdB7QtW3HH9ZvtTs0lf-27" style="edgeStyle=orthogonalEdgeStyle;rounded=0;orthogonalLoop=1;jettySize=auto;html=1;" edge="1" parent="1" source="IbdB7QtW3HH9ZvtTs0lf-18" target="IbdB7QtW3HH9ZvtTs0lf-23">
          <mxGeometry relative="1" as="geometry" />
        </mxCell>
        <mxCell id="IbdB7QtW3HH9ZvtTs0lf-18" value="registerd?" style="rhombus;whiteSpace=wrap;html=1;" vertex="1" parent="1">
          <mxGeometry x="420" y="230" width="80" height="70" as="geometry" />
        </mxCell>
        <mxCell id="IbdB7QtW3HH9ZvtTs0lf-20" value="no" style="text;html=1;align=center;verticalAlign=middle;whiteSpace=wrap;rounded=0;" vertex="1" parent="1">
          <mxGeometry x="350" y="250" width="50" height="30" as="geometry" />
        </mxCell>
        <mxCell id="IbdB7QtW3HH9ZvtTs0lf-22" value="yes" style="text;html=1;align=center;verticalAlign=middle;whiteSpace=wrap;rounded=0;" vertex="1" parent="1">
          <mxGeometry x="450" y="300" width="50" height="30" as="geometry" />
        </mxCell>
        <mxCell id="IbdB7QtW3HH9ZvtTs0lf-32" style="edgeStyle=orthogonalEdgeStyle;rounded=0;orthogonalLoop=1;jettySize=auto;html=1;entryX=0;entryY=0.5;entryDx=0;entryDy=0;" edge="1" parent="1" source="IbdB7QtW3HH9ZvtTs0lf-23" target="IbdB7QtW3HH9ZvtTs0lf-30">
          <mxGeometry relative="1" as="geometry" />
        </mxCell>
        <mxCell id="IbdB7QtW3HH9ZvtTs0lf-34" style="edgeStyle=orthogonalEdgeStyle;rounded=0;orthogonalLoop=1;jettySize=auto;html=1;entryX=1;entryY=0.5;entryDx=0;entryDy=0;" edge="1" parent="1" source="IbdB7QtW3HH9ZvtTs0lf-23" target="IbdB7QtW3HH9ZvtTs0lf-28">
          <mxGeometry relative="1" as="geometry" />
        </mxCell>
        <mxCell id="IbdB7QtW3HH9ZvtTs0lf-59" style="edgeStyle=orthogonalEdgeStyle;rounded=0;orthogonalLoop=1;jettySize=auto;html=1;" edge="1" parent="1" source="IbdB7QtW3HH9ZvtTs0lf-29">
          <mxGeometry relative="1" as="geometry">
            <mxPoint x="554.5" y="1055" as="targetPoint" />
            <mxPoint x="554.5" y="485" as="sourcePoint" />
          </mxGeometry>
        </mxCell>
        <mxCell id="IbdB7QtW3HH9ZvtTs0lf-96" style="edgeStyle=orthogonalEdgeStyle;rounded=0;orthogonalLoop=1;jettySize=auto;html=1;" edge="1" parent="1" source="IbdB7QtW3HH9ZvtTs0lf-23" target="IbdB7QtW3HH9ZvtTs0lf-29">
          <mxGeometry relative="1" as="geometry" />
        </mxCell>
        <mxCell id="IbdB7QtW3HH9ZvtTs0lf-135" style="edgeStyle=orthogonalEdgeStyle;rounded=0;orthogonalLoop=1;jettySize=auto;html=1;entryX=0.5;entryY=1;entryDx=0;entryDy=0;" edge="1" parent="1" source="IbdB7QtW3HH9ZvtTs0lf-23" target="IbdB7QtW3HH9ZvtTs0lf-134">
          <mxGeometry relative="1" as="geometry" />
        </mxCell>
        <mxCell id="IbdB7QtW3HH9ZvtTs0lf-23" value="browse products" style="rounded=1;whiteSpace=wrap;html=1;" vertex="1" parent="1">
          <mxGeometry x="500" y="330" width="110" height="60" as="geometry" />
        </mxCell>
        <mxCell id="IbdB7QtW3HH9ZvtTs0lf-24" style="edgeStyle=orthogonalEdgeStyle;rounded=0;orthogonalLoop=1;jettySize=auto;html=1;entryX=0.913;entryY=0.496;entryDx=0;entryDy=0;entryPerimeter=0;" edge="1" parent="1" source="IbdB7QtW3HH9ZvtTs0lf-14" target="IbdB7QtW3HH9ZvtTs0lf-18">
          <mxGeometry relative="1" as="geometry" />
        </mxCell>
        <mxCell id="IbdB7QtW3HH9ZvtTs0lf-64" style="edgeStyle=orthogonalEdgeStyle;rounded=0;orthogonalLoop=1;jettySize=auto;html=1;" edge="1" parent="1" source="IbdB7QtW3HH9ZvtTs0lf-28" target="IbdB7QtW3HH9ZvtTs0lf-63">
          <mxGeometry relative="1" as="geometry" />
        </mxCell>
        <mxCell id="IbdB7QtW3HH9ZvtTs0lf-28" value="add to cart" style="rounded=1;whiteSpace=wrap;html=1;" vertex="1" parent="1">
          <mxGeometry x="240" y="340" width="100" height="50" as="geometry" />
        </mxCell>
        <mxCell id="IbdB7QtW3HH9ZvtTs0lf-53" style="edgeStyle=orthogonalEdgeStyle;rounded=0;orthogonalLoop=1;jettySize=auto;html=1;" edge="1" parent="1" source="IbdB7QtW3HH9ZvtTs0lf-29" target="IbdB7QtW3HH9ZvtTs0lf-37">
          <mxGeometry relative="1" as="geometry" />
        </mxCell>
        <mxCell id="IbdB7QtW3HH9ZvtTs0lf-29" value="view my store" style="rounded=1;whiteSpace=wrap;html=1;" vertex="1" parent="1">
          <mxGeometry x="570" y="440" width="100" height="50" as="geometry" />
        </mxCell>
        <mxCell id="IbdB7QtW3HH9ZvtTs0lf-30" value="register to sell" style="rounded=1;whiteSpace=wrap;html=1;" vertex="1" parent="1">
          <mxGeometry x="660" y="320" width="110" height="75" as="geometry" />
        </mxCell>
        <mxCell id="IbdB7QtW3HH9ZvtTs0lf-47" style="edgeStyle=orthogonalEdgeStyle;rounded=0;orthogonalLoop=1;jettySize=auto;html=1;entryX=0;entryY=0.5;entryDx=0;entryDy=0;" edge="1" parent="1" source="IbdB7QtW3HH9ZvtTs0lf-35" target="IbdB7QtW3HH9ZvtTs0lf-37">
          <mxGeometry relative="1" as="geometry" />
        </mxCell>
        <mxCell id="IbdB7QtW3HH9ZvtTs0lf-35" value="admin approved?" style="rhombus;whiteSpace=wrap;html=1;" vertex="1" parent="1">
          <mxGeometry x="820" y="325" width="80" height="80" as="geometry" />
        </mxCell>
        <mxCell id="IbdB7QtW3HH9ZvtTs0lf-36" style="edgeStyle=orthogonalEdgeStyle;rounded=0;orthogonalLoop=1;jettySize=auto;html=1;entryX=0.1;entryY=0.55;entryDx=0;entryDy=0;entryPerimeter=0;" edge="1" parent="1" source="IbdB7QtW3HH9ZvtTs0lf-30" target="IbdB7QtW3HH9ZvtTs0lf-35">
          <mxGeometry relative="1" as="geometry" />
        </mxCell>
        <mxCell id="IbdB7QtW3HH9ZvtTs0lf-54" style="edgeStyle=orthogonalEdgeStyle;rounded=0;orthogonalLoop=1;jettySize=auto;html=1;" edge="1" parent="1" source="IbdB7QtW3HH9ZvtTs0lf-37" target="IbdB7QtW3HH9ZvtTs0lf-55">
          <mxGeometry relative="1" as="geometry">
            <mxPoint x="1010" y="930" as="targetPoint" />
            <Array as="points">
              <mxPoint x="990" y="610" />
              <mxPoint x="995" y="610" />
            </Array>
          </mxGeometry>
        </mxCell>
        <mxCell id="IbdB7QtW3HH9ZvtTs0lf-100" style="edgeStyle=orthogonalEdgeStyle;rounded=0;orthogonalLoop=1;jettySize=auto;html=1;" edge="1" parent="1" source="IbdB7QtW3HH9ZvtTs0lf-37" target="IbdB7QtW3HH9ZvtTs0lf-99">
          <mxGeometry relative="1" as="geometry" />
        </mxCell>
        <mxCell id="IbdB7QtW3HH9ZvtTs0lf-102" style="edgeStyle=orthogonalEdgeStyle;rounded=0;orthogonalLoop=1;jettySize=auto;html=1;" edge="1" parent="1" source="IbdB7QtW3HH9ZvtTs0lf-37" target="IbdB7QtW3HH9ZvtTs0lf-97">
          <mxGeometry relative="1" as="geometry" />
        </mxCell>
        <mxCell id="IbdB7QtW3HH9ZvtTs0lf-104" style="edgeStyle=orthogonalEdgeStyle;rounded=0;orthogonalLoop=1;jettySize=auto;html=1;" edge="1" parent="1" source="IbdB7QtW3HH9ZvtTs0lf-37">
          <mxGeometry relative="1" as="geometry">
            <mxPoint x="990" y="310" as="targetPoint" />
          </mxGeometry>
        </mxCell>
        <mxCell id="IbdB7QtW3HH9ZvtTs0lf-105" style="edgeStyle=orthogonalEdgeStyle;rounded=0;orthogonalLoop=1;jettySize=auto;html=1;" edge="1" parent="1" source="IbdB7QtW3HH9ZvtTs0lf-37" target="IbdB7QtW3HH9ZvtTs0lf-103">
          <mxGeometry relative="1" as="geometry" />
        </mxCell>
        <mxCell id="IbdB7QtW3HH9ZvtTs0lf-106" style="edgeStyle=orthogonalEdgeStyle;rounded=0;orthogonalLoop=1;jettySize=auto;html=1;" edge="1" parent="1" source="IbdB7QtW3HH9ZvtTs0lf-37" target="IbdB7QtW3HH9ZvtTs0lf-103">
          <mxGeometry relative="1" as="geometry" />
        </mxCell>
        <mxCell id="IbdB7QtW3HH9ZvtTs0lf-165" style="edgeStyle=orthogonalEdgeStyle;rounded=0;orthogonalLoop=1;jettySize=auto;html=1;" edge="1" parent="1" source="IbdB7QtW3HH9ZvtTs0lf-37" target="IbdB7QtW3HH9ZvtTs0lf-98">
          <mxGeometry relative="1" as="geometry" />
        </mxCell>
        <mxCell id="IbdB7QtW3HH9ZvtTs0lf-37" value="store dashboard" style="rounded=1;whiteSpace=wrap;html=1;" vertex="1" parent="1">
          <mxGeometry x="960" y="20" width="120" height="60" as="geometry" />
        </mxCell>
        <mxCell id="IbdB7QtW3HH9ZvtTs0lf-48" value="yes" style="text;html=1;align=center;verticalAlign=middle;whiteSpace=wrap;rounded=0;" vertex="1" parent="1">
          <mxGeometry x="880" y="340" width="60" height="30" as="geometry" />
        </mxCell>
        <mxCell id="IbdB7QtW3HH9ZvtTs0lf-49" value="no" style="text;html=1;align=center;verticalAlign=middle;whiteSpace=wrap;rounded=0;" vertex="1" parent="1">
          <mxGeometry x="610" y="390" width="60" height="30" as="geometry" />
        </mxCell>
        <mxCell id="IbdB7QtW3HH9ZvtTs0lf-52" style="edgeStyle=orthogonalEdgeStyle;rounded=0;orthogonalLoop=1;jettySize=auto;html=1;entryX=0.664;entryY=0.983;entryDx=0;entryDy=0;entryPerimeter=0;" edge="1" parent="1" source="IbdB7QtW3HH9ZvtTs0lf-35" target="IbdB7QtW3HH9ZvtTs0lf-23">
          <mxGeometry relative="1" as="geometry" />
        </mxCell>
        <mxCell id="IbdB7QtW3HH9ZvtTs0lf-55" value="" style="ellipse;whiteSpace=wrap;html=1;aspect=fixed;strokeColor=#b85450;fillColor=#000000;shadow=1;" vertex="1" parent="1">
          <mxGeometry x="970" y="1017.5" width="40" height="40" as="geometry" />
        </mxCell>
        <mxCell id="IbdB7QtW3HH9ZvtTs0lf-57" value="logout" style="rounded=1;whiteSpace=wrap;html=1;" vertex="1" parent="1">
          <mxGeometry x="945" y="860" width="105" height="20" as="geometry" />
        </mxCell>
        <mxCell id="IbdB7QtW3HH9ZvtTs0lf-58" style="edgeStyle=orthogonalEdgeStyle;rounded=0;orthogonalLoop=1;jettySize=auto;html=1;" edge="1" parent="1" source="IbdB7QtW3HH9ZvtTs0lf-23" target="IbdB7QtW3HH9ZvtTs0lf-23">
          <mxGeometry relative="1" as="geometry" />
        </mxCell>
        <mxCell id="IbdB7QtW3HH9ZvtTs0lf-60" value="" style="ellipse;whiteSpace=wrap;html=1;aspect=fixed;strokeColor=#b85450;fillColor=#000000;shadow=1;" vertex="1" parent="1">
          <mxGeometry x="537.5" y="1030" width="35" height="35" as="geometry" />
        </mxCell>
        <mxCell id="IbdB7QtW3HH9ZvtTs0lf-61" value="logout" style="rounded=1;whiteSpace=wrap;html=1;" vertex="1" parent="1">
          <mxGeometry x="502.5" y="870" width="105" height="20" as="geometry" />
        </mxCell>
        <mxCell id="IbdB7QtW3HH9ZvtTs0lf-67" style="edgeStyle=orthogonalEdgeStyle;rounded=0;orthogonalLoop=1;jettySize=auto;html=1;entryX=0;entryY=0.5;entryDx=0;entryDy=0;" edge="1" parent="1" source="IbdB7QtW3HH9ZvtTs0lf-62" target="IbdB7QtW3HH9ZvtTs0lf-66">
          <mxGeometry relative="1" as="geometry" />
        </mxCell>
        <mxCell id="IbdB7QtW3HH9ZvtTs0lf-62" value="Checkout" style="rounded=1;whiteSpace=wrap;html=1;" vertex="1" parent="1">
          <mxGeometry x="230" y="570" width="120" height="60" as="geometry" />
        </mxCell>
        <mxCell id="IbdB7QtW3HH9ZvtTs0lf-65" style="edgeStyle=orthogonalEdgeStyle;rounded=0;orthogonalLoop=1;jettySize=auto;html=1;" edge="1" parent="1" source="IbdB7QtW3HH9ZvtTs0lf-63" target="IbdB7QtW3HH9ZvtTs0lf-62">
          <mxGeometry relative="1" as="geometry" />
        </mxCell>
        <mxCell id="IbdB7QtW3HH9ZvtTs0lf-63" value="View cart" style="rounded=1;whiteSpace=wrap;html=1;" vertex="1" parent="1">
          <mxGeometry x="230" y="440" width="120" height="60" as="geometry" />
        </mxCell>
        <mxCell id="IbdB7QtW3HH9ZvtTs0lf-73" style="edgeStyle=orthogonalEdgeStyle;rounded=0;orthogonalLoop=1;jettySize=auto;html=1;" edge="1" parent="1" source="IbdB7QtW3HH9ZvtTs0lf-75" target="IbdB7QtW3HH9ZvtTs0lf-72">
          <mxGeometry relative="1" as="geometry" />
        </mxCell>
        <mxCell id="IbdB7QtW3HH9ZvtTs0lf-81" style="edgeStyle=orthogonalEdgeStyle;rounded=0;orthogonalLoop=1;jettySize=auto;html=1;entryX=0.5;entryY=1;entryDx=0;entryDy=0;" edge="1" parent="1" source="IbdB7QtW3HH9ZvtTs0lf-66" target="IbdB7QtW3HH9ZvtTs0lf-74">
          <mxGeometry relative="1" as="geometry" />
        </mxCell>
        <mxCell id="IbdB7QtW3HH9ZvtTs0lf-66" value="checkout successful?" style="rhombus;whiteSpace=wrap;html=1;" vertex="1" parent="1">
          <mxGeometry x="270" y="700" width="90" height="90" as="geometry" />
        </mxCell>
        <mxCell id="IbdB7QtW3HH9ZvtTs0lf-72" value="" style="ellipse;whiteSpace=wrap;html=1;aspect=fixed;strokeColor=#b85450;fillColor=#000000;shadow=1;" vertex="1" parent="1">
          <mxGeometry x="385" y="1020" width="35" height="35" as="geometry" />
        </mxCell>
        <mxCell id="IbdB7QtW3HH9ZvtTs0lf-76" value="" style="edgeStyle=orthogonalEdgeStyle;rounded=0;orthogonalLoop=1;jettySize=auto;html=1;" edge="1" parent="1" source="IbdB7QtW3HH9ZvtTs0lf-66" target="IbdB7QtW3HH9ZvtTs0lf-75">
          <mxGeometry relative="1" as="geometry">
            <mxPoint x="445" y="630" as="sourcePoint" />
            <mxPoint x="408" y="940" as="targetPoint" />
          </mxGeometry>
        </mxCell>
        <mxCell id="IbdB7QtW3HH9ZvtTs0lf-75" value="yes" style="text;html=1;align=center;verticalAlign=middle;whiteSpace=wrap;rounded=0;" vertex="1" parent="1">
          <mxGeometry x="400" y="760" width="60" height="30" as="geometry" />
        </mxCell>
        <mxCell id="IbdB7QtW3HH9ZvtTs0lf-80" value="" style="edgeStyle=orthogonalEdgeStyle;rounded=0;orthogonalLoop=1;jettySize=auto;html=1;" edge="1" parent="1" source="IbdB7QtW3HH9ZvtTs0lf-74" target="IbdB7QtW3HH9ZvtTs0lf-79">
          <mxGeometry relative="1" as="geometry" />
        </mxCell>
        <mxCell id="IbdB7QtW3HH9ZvtTs0lf-74" value="no" style="text;html=1;align=center;verticalAlign=middle;whiteSpace=wrap;rounded=0;" vertex="1" parent="1">
          <mxGeometry x="440" y="620" width="60" height="10" as="geometry" />
        </mxCell>
        <mxCell id="IbdB7QtW3HH9ZvtTs0lf-93" style="edgeStyle=orthogonalEdgeStyle;rounded=0;orthogonalLoop=1;jettySize=auto;html=1;entryX=1;entryY=0.75;entryDx=0;entryDy=0;" edge="1" parent="1" source="IbdB7QtW3HH9ZvtTs0lf-87" target="IbdB7QtW3HH9ZvtTs0lf-63">
          <mxGeometry relative="1" as="geometry" />
        </mxCell>
        <mxCell id="IbdB7QtW3HH9ZvtTs0lf-79" value="try again?" style="rhombus;whiteSpace=wrap;html=1;" vertex="1" parent="1">
          <mxGeometry x="420" y="530" width="80" height="80" as="geometry" />
        </mxCell>
        <mxCell id="IbdB7QtW3HH9ZvtTs0lf-85" style="edgeStyle=orthogonalEdgeStyle;rounded=0;orthogonalLoop=1;jettySize=auto;html=1;" edge="1" parent="1" source="IbdB7QtW3HH9ZvtTs0lf-79" target="IbdB7QtW3HH9ZvtTs0lf-88">
          <mxGeometry relative="1" as="geometry" />
        </mxCell>
        <mxCell id="IbdB7QtW3HH9ZvtTs0lf-88" value="yes" style="text;html=1;align=center;verticalAlign=middle;whiteSpace=wrap;rounded=0;" vertex="1" parent="1">
          <mxGeometry x="365" y="660" width="60" height="30" as="geometry" />
        </mxCell>
        <mxCell id="IbdB7QtW3HH9ZvtTs0lf-90" style="edgeStyle=orthogonalEdgeStyle;rounded=0;orthogonalLoop=1;jettySize=auto;html=1;entryX=0.683;entryY=0.967;entryDx=0;entryDy=0;entryPerimeter=0;" edge="1" parent="1" source="IbdB7QtW3HH9ZvtTs0lf-88" target="IbdB7QtW3HH9ZvtTs0lf-62">
          <mxGeometry relative="1" as="geometry" />
        </mxCell>
        <mxCell id="IbdB7QtW3HH9ZvtTs0lf-94" value="" style="edgeStyle=orthogonalEdgeStyle;rounded=0;orthogonalLoop=1;jettySize=auto;html=1;entryX=1;entryY=0.75;entryDx=0;entryDy=0;" edge="1" parent="1" source="IbdB7QtW3HH9ZvtTs0lf-79" target="IbdB7QtW3HH9ZvtTs0lf-87">
          <mxGeometry relative="1" as="geometry">
            <mxPoint x="420" y="570" as="sourcePoint" />
            <mxPoint x="350" y="485" as="targetPoint" />
          </mxGeometry>
        </mxCell>
        <mxCell id="IbdB7QtW3HH9ZvtTs0lf-87" value="no" style="text;html=1;align=center;verticalAlign=middle;whiteSpace=wrap;rounded=0;" vertex="1" parent="1">
          <mxGeometry x="390" y="440" width="60" height="30" as="geometry" />
        </mxCell>
        <mxCell id="IbdB7QtW3HH9ZvtTs0lf-97" value="delete store" style="rounded=1;whiteSpace=wrap;html=1;" vertex="1" parent="1">
          <mxGeometry x="1330" y="620" width="120" height="60" as="geometry" />
        </mxCell>
        <mxCell id="IbdB7QtW3HH9ZvtTs0lf-98" value="view analysis" style="rounded=1;whiteSpace=wrap;html=1;" vertex="1" parent="1">
          <mxGeometry x="1515" y="745" width="120" height="60" as="geometry" />
        </mxCell>
        <mxCell id="IbdB7QtW3HH9ZvtTs0lf-99" value="delete product" style="rounded=1;whiteSpace=wrap;html=1;" vertex="1" parent="1">
          <mxGeometry x="1010" y="-170" width="120" height="60" as="geometry" />
        </mxCell>
        <mxCell id="IbdB7QtW3HH9ZvtTs0lf-103" value="add product" style="rounded=1;whiteSpace=wrap;html=1;" vertex="1" parent="1">
          <mxGeometry x="1080" y="350" width="120" height="60" as="geometry" />
        </mxCell>
        <mxCell id="IbdB7QtW3HH9ZvtTs0lf-113" style="edgeStyle=orthogonalEdgeStyle;rounded=0;orthogonalLoop=1;jettySize=auto;html=1;" edge="1" parent="1" source="IbdB7QtW3HH9ZvtTs0lf-107" target="IbdB7QtW3HH9ZvtTs0lf-112">
          <mxGeometry relative="1" as="geometry" />
        </mxCell>
        <mxCell id="IbdB7QtW3HH9ZvtTs0lf-114" style="edgeStyle=orthogonalEdgeStyle;rounded=0;orthogonalLoop=1;jettySize=auto;html=1;" edge="1" parent="1" source="IbdB7QtW3HH9ZvtTs0lf-107" target="IbdB7QtW3HH9ZvtTs0lf-111">
          <mxGeometry relative="1" as="geometry" />
        </mxCell>
        <mxCell id="IbdB7QtW3HH9ZvtTs0lf-107" value="admin approved?" style="rhombus;whiteSpace=wrap;html=1;" vertex="1" parent="1">
          <mxGeometry x="1430" y="290" width="80" height="80" as="geometry" />
        </mxCell>
        <mxCell id="IbdB7QtW3HH9ZvtTs0lf-109" style="edgeStyle=orthogonalEdgeStyle;rounded=0;orthogonalLoop=1;jettySize=auto;html=1;entryX=0.188;entryY=0.613;entryDx=0;entryDy=0;entryPerimeter=0;" edge="1" parent="1" source="IbdB7QtW3HH9ZvtTs0lf-103" target="IbdB7QtW3HH9ZvtTs0lf-107">
          <mxGeometry relative="1" as="geometry" />
        </mxCell>
        <mxCell id="IbdB7QtW3HH9ZvtTs0lf-116" style="edgeStyle=orthogonalEdgeStyle;rounded=0;orthogonalLoop=1;jettySize=auto;html=1;entryX=0.5;entryY=0;entryDx=0;entryDy=0;" edge="1" parent="1" source="IbdB7QtW3HH9ZvtTs0lf-111" target="IbdB7QtW3HH9ZvtTs0lf-115">
          <mxGeometry relative="1" as="geometry" />
        </mxCell>
        <mxCell id="IbdB7QtW3HH9ZvtTs0lf-111" value="yes" style="text;html=1;align=center;verticalAlign=middle;whiteSpace=wrap;rounded=0;" vertex="1" parent="1">
          <mxGeometry x="1440" y="410" width="60" height="30" as="geometry" />
        </mxCell>
        <mxCell id="IbdB7QtW3HH9ZvtTs0lf-119" style="edgeStyle=orthogonalEdgeStyle;rounded=0;orthogonalLoop=1;jettySize=auto;html=1;" edge="1" parent="1" source="IbdB7QtW3HH9ZvtTs0lf-112" target="IbdB7QtW3HH9ZvtTs0lf-118">
          <mxGeometry relative="1" as="geometry" />
        </mxCell>
        <mxCell id="IbdB7QtW3HH9ZvtTs0lf-112" value="no" style="text;html=1;align=center;verticalAlign=middle;whiteSpace=wrap;rounded=0;" vertex="1" parent="1">
          <mxGeometry x="1340" y="390" width="60" height="30" as="geometry" />
        </mxCell>
        <mxCell id="IbdB7QtW3HH9ZvtTs0lf-117" style="edgeStyle=orthogonalEdgeStyle;rounded=0;orthogonalLoop=1;jettySize=auto;html=1;" edge="1" parent="1" source="IbdB7QtW3HH9ZvtTs0lf-115">
          <mxGeometry relative="1" as="geometry">
            <mxPoint x="990" y="340" as="targetPoint" />
          </mxGeometry>
        </mxCell>
        <mxCell id="IbdB7QtW3HH9ZvtTs0lf-115" value="product added " style="rounded=1;whiteSpace=wrap;html=1;" vertex="1" parent="1">
          <mxGeometry x="1425" y="460" width="90" height="50" as="geometry" />
        </mxCell>
        <mxCell id="IbdB7QtW3HH9ZvtTs0lf-120" style="edgeStyle=orthogonalEdgeStyle;rounded=0;orthogonalLoop=1;jettySize=auto;html=1;" edge="1" parent="1" source="IbdB7QtW3HH9ZvtTs0lf-118" target="IbdB7QtW3HH9ZvtTs0lf-37">
          <mxGeometry relative="1" as="geometry" />
        </mxCell>
        <mxCell id="IbdB7QtW3HH9ZvtTs0lf-118" value="product not added" style="rounded=1;whiteSpace=wrap;html=1;" vertex="1" parent="1">
          <mxGeometry x="1238" y="415" width="75" height="45" as="geometry" />
        </mxCell>
        <mxCell id="IbdB7QtW3HH9ZvtTs0lf-125" style="edgeStyle=orthogonalEdgeStyle;rounded=0;orthogonalLoop=1;jettySize=auto;html=1;" edge="1" parent="1" source="IbdB7QtW3HH9ZvtTs0lf-121" target="IbdB7QtW3HH9ZvtTs0lf-122">
          <mxGeometry relative="1" as="geometry" />
        </mxCell>
        <mxCell id="IbdB7QtW3HH9ZvtTs0lf-127" style="edgeStyle=orthogonalEdgeStyle;rounded=0;orthogonalLoop=1;jettySize=auto;html=1;" edge="1" parent="1" source="IbdB7QtW3HH9ZvtTs0lf-121" target="IbdB7QtW3HH9ZvtTs0lf-123">
          <mxGeometry relative="1" as="geometry" />
        </mxCell>
        <mxCell id="IbdB7QtW3HH9ZvtTs0lf-121" value="are&amp;nbsp; you sure?" style="rhombus;whiteSpace=wrap;html=1;" vertex="1" parent="1">
          <mxGeometry x="1060" y="600" width="80" height="80" as="geometry" />
        </mxCell>
        <mxCell id="IbdB7QtW3HH9ZvtTs0lf-122" value="yes" style="text;html=1;align=center;verticalAlign=middle;whiteSpace=wrap;rounded=0;" vertex="1" parent="1">
          <mxGeometry x="710" y="550" width="60" height="50" as="geometry" />
        </mxCell>
        <mxCell id="IbdB7QtW3HH9ZvtTs0lf-123" value="no " style="text;html=1;align=center;verticalAlign=middle;whiteSpace=wrap;rounded=0;" vertex="1" parent="1">
          <mxGeometry x="830" y="510" width="60" height="30" as="geometry" />
        </mxCell>
        <mxCell id="IbdB7QtW3HH9ZvtTs0lf-124" style="edgeStyle=orthogonalEdgeStyle;rounded=0;orthogonalLoop=1;jettySize=auto;html=1;entryX=0.425;entryY=0.125;entryDx=0;entryDy=0;entryPerimeter=0;" edge="1" parent="1" source="IbdB7QtW3HH9ZvtTs0lf-97" target="IbdB7QtW3HH9ZvtTs0lf-121">
          <mxGeometry relative="1" as="geometry" />
        </mxCell>
        <mxCell id="IbdB7QtW3HH9ZvtTs0lf-126" style="edgeStyle=orthogonalEdgeStyle;rounded=0;orthogonalLoop=1;jettySize=auto;html=1;entryX=0.091;entryY=0.667;entryDx=0;entryDy=0;entryPerimeter=0;" edge="1" parent="1" source="IbdB7QtW3HH9ZvtTs0lf-122" target="IbdB7QtW3HH9ZvtTs0lf-23">
          <mxGeometry relative="1" as="geometry" />
        </mxCell>
        <mxCell id="IbdB7QtW3HH9ZvtTs0lf-128" style="edgeStyle=orthogonalEdgeStyle;rounded=0;orthogonalLoop=1;jettySize=auto;html=1;entryX=0.075;entryY=1.033;entryDx=0;entryDy=0;entryPerimeter=0;" edge="1" parent="1" source="IbdB7QtW3HH9ZvtTs0lf-123" target="IbdB7QtW3HH9ZvtTs0lf-37">
          <mxGeometry relative="1" as="geometry" />
        </mxCell>
        <mxCell id="IbdB7QtW3HH9ZvtTs0lf-132" style="edgeStyle=orthogonalEdgeStyle;rounded=0;orthogonalLoop=1;jettySize=auto;html=1;exitX=0;exitY=0;exitDx=0;exitDy=0;entryX=0.5;entryY=1;entryDx=0;entryDy=0;" edge="1" parent="1" source="IbdB7QtW3HH9ZvtTs0lf-72" target="IbdB7QtW3HH9ZvtTs0lf-72">
          <mxGeometry relative="1" as="geometry" />
        </mxCell>
        <mxCell id="IbdB7QtW3HH9ZvtTs0lf-152" style="edgeStyle=orthogonalEdgeStyle;rounded=0;orthogonalLoop=1;jettySize=auto;html=1;entryX=0;entryY=0.5;entryDx=0;entryDy=0;" edge="1" parent="1" source="IbdB7QtW3HH9ZvtTs0lf-134" target="IbdB7QtW3HH9ZvtTs0lf-151">
          <mxGeometry relative="1" as="geometry" />
        </mxCell>
        <mxCell id="IbdB7QtW3HH9ZvtTs0lf-170" style="edgeStyle=orthogonalEdgeStyle;rounded=0;orthogonalLoop=1;jettySize=auto;html=1;" edge="1" parent="1" source="IbdB7QtW3HH9ZvtTs0lf-134" target="IbdB7QtW3HH9ZvtTs0lf-168">
          <mxGeometry relative="1" as="geometry" />
        </mxCell>
        <mxCell id="IbdB7QtW3HH9ZvtTs0lf-134" value="admin page" style="rounded=1;whiteSpace=wrap;html=1;" vertex="1" parent="1">
          <mxGeometry x="340" y="90" width="90" height="50" as="geometry" />
        </mxCell>
        <mxCell id="IbdB7QtW3HH9ZvtTs0lf-139" style="edgeStyle=orthogonalEdgeStyle;rounded=0;orthogonalLoop=1;jettySize=auto;html=1;entryX=0;entryY=0.5;entryDx=0;entryDy=0;" edge="1" parent="1" source="IbdB7QtW3HH9ZvtTs0lf-136" target="IbdB7QtW3HH9ZvtTs0lf-138">
          <mxGeometry relative="1" as="geometry" />
        </mxCell>
        <mxCell id="IbdB7QtW3HH9ZvtTs0lf-136" value="approve store" style="rounded=1;whiteSpace=wrap;html=1;" vertex="1" parent="1">
          <mxGeometry x="250" y="-50" width="90" height="50" as="geometry" />
        </mxCell>
        <mxCell id="IbdB7QtW3HH9ZvtTs0lf-137" style="edgeStyle=orthogonalEdgeStyle;rounded=0;orthogonalLoop=1;jettySize=auto;html=1;entryX=0.36;entryY=0.909;entryDx=0;entryDy=0;entryPerimeter=0;" edge="1" parent="1" source="IbdB7QtW3HH9ZvtTs0lf-134" target="IbdB7QtW3HH9ZvtTs0lf-136">
          <mxGeometry relative="1" as="geometry" />
        </mxCell>
        <mxCell id="IbdB7QtW3HH9ZvtTs0lf-142" style="edgeStyle=orthogonalEdgeStyle;rounded=0;orthogonalLoop=1;jettySize=auto;html=1;entryX=0.5;entryY=1;entryDx=0;entryDy=0;" edge="1" parent="1" source="IbdB7QtW3HH9ZvtTs0lf-138" target="IbdB7QtW3HH9ZvtTs0lf-140">
          <mxGeometry relative="1" as="geometry" />
        </mxCell>
        <mxCell id="IbdB7QtW3HH9ZvtTs0lf-143" style="edgeStyle=orthogonalEdgeStyle;rounded=0;orthogonalLoop=1;jettySize=auto;html=1;" edge="1" parent="1" source="IbdB7QtW3HH9ZvtTs0lf-138" target="IbdB7QtW3HH9ZvtTs0lf-141">
          <mxGeometry relative="1" as="geometry" />
        </mxCell>
        <mxCell id="IbdB7QtW3HH9ZvtTs0lf-138" value="does it follow rules?" style="rhombus;whiteSpace=wrap;html=1;" vertex="1" parent="1">
          <mxGeometry x="270" y="-160" width="97.5" height="90" as="geometry" />
        </mxCell>
        <mxCell id="IbdB7QtW3HH9ZvtTs0lf-149" style="edgeStyle=orthogonalEdgeStyle;rounded=0;orthogonalLoop=1;jettySize=auto;html=1;entryX=0;entryY=0.5;entryDx=0;entryDy=0;" edge="1" parent="1" source="IbdB7QtW3HH9ZvtTs0lf-140" target="IbdB7QtW3HH9ZvtTs0lf-147">
          <mxGeometry relative="1" as="geometry" />
        </mxCell>
        <mxCell id="IbdB7QtW3HH9ZvtTs0lf-140" value="yes" style="text;html=1;align=center;verticalAlign=middle;whiteSpace=wrap;rounded=0;" vertex="1" parent="1">
          <mxGeometry x="280" y="-260" width="50" height="30" as="geometry" />
        </mxCell>
        <mxCell id="IbdB7QtW3HH9ZvtTs0lf-150" style="edgeStyle=orthogonalEdgeStyle;rounded=0;orthogonalLoop=1;jettySize=auto;html=1;" edge="1" parent="1" source="IbdB7QtW3HH9ZvtTs0lf-141" target="IbdB7QtW3HH9ZvtTs0lf-146">
          <mxGeometry relative="1" as="geometry" />
        </mxCell>
        <mxCell id="IbdB7QtW3HH9ZvtTs0lf-141" value="no" style="text;html=1;align=center;verticalAlign=middle;whiteSpace=wrap;rounded=0;" vertex="1" parent="1">
          <mxGeometry x="375" y="-180" width="50" height="30" as="geometry" />
        </mxCell>
        <mxCell id="IbdB7QtW3HH9ZvtTs0lf-146" value="do not approve" style="rounded=1;whiteSpace=wrap;html=1;" vertex="1" parent="1">
          <mxGeometry x="482.5" y="-290" width="90" height="50" as="geometry" />
        </mxCell>
        <mxCell id="IbdB7QtW3HH9ZvtTs0lf-147" value="approved" style="rounded=1;whiteSpace=wrap;html=1;" vertex="1" parent="1">
          <mxGeometry x="335" y="-340" width="90" height="50" as="geometry" />
        </mxCell>
        <mxCell id="IbdB7QtW3HH9ZvtTs0lf-156" style="edgeStyle=orthogonalEdgeStyle;rounded=0;orthogonalLoop=1;jettySize=auto;html=1;entryX=0;entryY=0.5;entryDx=0;entryDy=0;" edge="1" parent="1" source="IbdB7QtW3HH9ZvtTs0lf-151" target="IbdB7QtW3HH9ZvtTs0lf-154">
          <mxGeometry relative="1" as="geometry" />
        </mxCell>
        <mxCell id="IbdB7QtW3HH9ZvtTs0lf-151" value="approve products" style="rounded=1;whiteSpace=wrap;html=1;" vertex="1" parent="1">
          <mxGeometry x="447.5" y="-100" width="90" height="50" as="geometry" />
        </mxCell>
        <mxCell id="IbdB7QtW3HH9ZvtTs0lf-159" style="edgeStyle=orthogonalEdgeStyle;rounded=0;orthogonalLoop=1;jettySize=auto;html=1;entryX=0.5;entryY=1;entryDx=0;entryDy=0;" edge="1" parent="1" source="IbdB7QtW3HH9ZvtTs0lf-154" target="IbdB7QtW3HH9ZvtTs0lf-158">
          <mxGeometry relative="1" as="geometry">
            <Array as="points">
              <mxPoint x="650" y="-205" />
              <mxPoint x="633" y="-205" />
            </Array>
          </mxGeometry>
        </mxCell>
        <mxCell id="IbdB7QtW3HH9ZvtTs0lf-160" style="edgeStyle=orthogonalEdgeStyle;rounded=0;orthogonalLoop=1;jettySize=auto;html=1;entryX=0.5;entryY=1;entryDx=0;entryDy=0;" edge="1" parent="1" source="IbdB7QtW3HH9ZvtTs0lf-154" target="IbdB7QtW3HH9ZvtTs0lf-157">
          <mxGeometry relative="1" as="geometry" />
        </mxCell>
        <mxCell id="IbdB7QtW3HH9ZvtTs0lf-154" value="is the product appropriate?" style="rhombus;whiteSpace=wrap;html=1;" vertex="1" parent="1">
          <mxGeometry x="612.5" y="-180" width="97.5" height="100" as="geometry" />
        </mxCell>
        <mxCell id="IbdB7QtW3HH9ZvtTs0lf-163" style="edgeStyle=orthogonalEdgeStyle;rounded=0;orthogonalLoop=1;jettySize=auto;html=1;entryX=1;entryY=0.5;entryDx=0;entryDy=0;" edge="1" parent="1" source="IbdB7QtW3HH9ZvtTs0lf-157" target="IbdB7QtW3HH9ZvtTs0lf-147">
          <mxGeometry relative="1" as="geometry" />
        </mxCell>
        <mxCell id="IbdB7QtW3HH9ZvtTs0lf-157" value="yes" style="text;html=1;align=center;verticalAlign=middle;whiteSpace=wrap;rounded=0;" vertex="1" parent="1">
          <mxGeometry x="650" y="-360" width="50" height="30" as="geometry" />
        </mxCell>
        <mxCell id="IbdB7QtW3HH9ZvtTs0lf-162" style="edgeStyle=orthogonalEdgeStyle;rounded=0;orthogonalLoop=1;jettySize=auto;html=1;entryX=1;entryY=0.5;entryDx=0;entryDy=0;" edge="1" parent="1" source="IbdB7QtW3HH9ZvtTs0lf-158" target="IbdB7QtW3HH9ZvtTs0lf-146">
          <mxGeometry relative="1" as="geometry" />
        </mxCell>
        <mxCell id="IbdB7QtW3HH9ZvtTs0lf-158" value="no" style="text;html=1;align=center;verticalAlign=middle;whiteSpace=wrap;rounded=0;" vertex="1" parent="1">
          <mxGeometry x="607.5" y="-260" width="50" height="30" as="geometry" />
        </mxCell>
        <mxCell id="IbdB7QtW3HH9ZvtTs0lf-167" style="edgeStyle=orthogonalEdgeStyle;rounded=0;orthogonalLoop=1;jettySize=auto;html=1;entryX=0.868;entryY=0.207;entryDx=0;entryDy=0;entryPerimeter=0;" edge="1" parent="1" source="IbdB7QtW3HH9ZvtTs0lf-98" target="IbdB7QtW3HH9ZvtTs0lf-57">
          <mxGeometry relative="1" as="geometry" />
        </mxCell>
        <mxCell id="IbdB7QtW3HH9ZvtTs0lf-168" value="monitor the system" style="rounded=1;whiteSpace=wrap;html=1;" vertex="1" parent="1">
          <mxGeometry x="680" y="50" width="90" height="50" as="geometry" />
        </mxCell>
      </root>
    </mxGraphModel>
  </diagram>
</mxfile>
